#!OML:ASF F:\VICON\USERDATA\INSTALL\rory3\rory3.ASF
:FULLY-SPECIFIED
:DEGREES
372
root 11.5716 15.8245 -9.89627 -185.091 54.2547 -183.4
lowerback 7.58919 1.07477 -2.45601
upperback -0.952247 1.18101 -0.598929
thorax -5.28936 0.650461 0.614314
lowerneck -11.304 -9.12652 -13.239
upperneck 23.584 -11.9408 9.91481
head 10.8921 -5.39832 4.18602
rclavicle -1.48786e-014 1.4064e-014
rhumerus -38.2028 -0.314956 -86.6834
rradius 31.1118
rwrist 8.07443
rhand -16.9834 13.3702
rfingers 7.12502
rthumb 9.25135 -16.4068
lclavicle -1.48786e-014 1.4064e-014
lhumerus -36.707 13.1946 75.0963
lradius 22.5079
lwrist -4.4492
lhand -11.4907 13.3888
lfingers 7.12502
lthumb 14.5478 42.8587
rfemur -4.62474 -1.38276 18.6681
rtibia 59.4659
rfoot 10.8426 -11.6614
rtoes -5.01563
lfemur -14.7134 -6.09521 -26.2336
ltibia 27.7306
lfoot -9.44992 13.4909
ltoes -3.7869
373
root 11.636 15.8216 -9.96405 -185.468 54.2734 -183.837
lowerback 7.64944 1.00073 -2.72525
upperback -0.919851 1.05362 -0.673822
thorax -5.28966 0.594926 0.702326
lowerneck -11.3364 -9.12913 -13.3525
upperneck 23.6374 -11.9527 10.0424
head 10.9372 -5.3982 4.24951
rclavicle -5.50463e-015 -3.97569e-016
rhumerus -38.1608 -0.261209 -86.7509
rradius 31.1708
rwrist 8.08893
rhand -16.9238 13.3027
rfingers 7.12502
rthumb 9.30888 -16.4718
lclavicle -5.50463e-015 -3.97569e-016
lhumerus -36.5734 13.2941 74.9686
lradius 22.6144
lwrist -4.79734
lhand -11.413 13.2216
lfingers 7.12502
lthumb 14.6226 42.6861
rfemur -5.65983 -1.47916 18.371
rtibia 60.856
rfoot 9.67076 -12.4213
rtoes -4.50961
lfemur -14.2538 -5.87254 -26.6343
ltibia 27.6243
lfoot -9.70848 13.2659
ltoes -3.76207
374
root 11.6982 15.82 -10.0307 -185.43 54.3032 -183.676
lowerback 7.83939 0.895072 -2.66039
upperback -0.891122 0.914751 -0.632635
thorax -5.36199 0.52543 0.723335
lowerneck -11.3608 -9.10591 -13.4155
upperneck 23.6744 -11.926 10.1204
head 10.962 -5.3821 4.29288
rclavicle -1.11574e-013 -1.19768e-014
rhumerus -38.1217 -0.227826 -86.7935
rradius 31.1755
rwrist 8.1579
rhand -17.0141 13.2833
rfingers 7.12502
rthumb 9.22173 -16.495
lclavicle -1.11574e-013 -1.19768e-014
lhumerus -36.4442 13.5444 74.8034
lradius 22.7264
lwrist -5.19125
lhand -11.2241 13.3376
lfingers 7.12502
lthumb 14.8046 42.7887
rfemur -6.59297 -1.55169 18.4956
rtibia 62.038
rfoot 8.03887 -13.079
rtoes -3.07882
lfemur -13.7811 -5.65354 -26.6498
ltibia 27.6221
lfoot -10.028 13.0307
ltoes -3.40858
375
root 11.7585 15.8191 -10.0973 -185.389 54.3309 -183.55
lowerback 7.98791 0.811978 -2.5651
upperback -0.855246 0.809573 -0.622491
thorax -5.40359 0.471019 0.691928
lowerneck -11.4158 -9.11415 -13.421
upperneck 23.7124 -11.9347 10.1217
head 10.9887 -5.38496 4.29144
rclavicle 4.0879e-014 1.98785e-015
rhumerus -37.9995 -0.668961 -86.6714
rradius 31.0751
rwrist 8.58187
rhand -16.9739 13.4205
rfingers 7.12502
rthumb 9.26054 -16.3562
lclavicle 4.0879e-014 1.98785e-015
lhumerus -36.1722 13.7541 74.658
lradius 22.5837
lwrist -5.55332
lhand -11.2275 13.2349
lfingers 7.12502
lthumb 14.8014 42.6863
rfemur -7.58098 -1.56474 18.6292
rtibia 62.9947
rfoot 6.77796 -13.5261
rtoes -3.08934
lfemur -13.3991 -5.49989 -26.6883
ltibia 27.7332
lfoot -10.3796 12.8567
ltoes -3.28846
376
root 11.8182 15.8153 -10.1642 -185.42 54.4017 -183.662
lowerback 7.94188 0.772771 -2.58482
upperback -0.816488 0.756509 -0.659871
thorax -5.33493 0.444241 0.671717
lowerneck -11.4682 -9.12689 -13.3616
upperneck 23.7327 -11.9484 10.0646
head 11.0001 -5.39111 4.25669
rclavicle 4.69054e-014 4.02539e-015
rhumerus -37.8862 -0.9404 -86.6019
rradius 31.0975
rwrist 8.75776
rhand -16.8709 13.5099
rfingers 7.12502
rthumb 9.35988 -16.2623
lclavicle 4.69054e-014 4.02539e-015
lhumerus -35.7123 13.5398 74.7694
lradius 22.3424
lwrist -5.5964
lhand -11.2748 13.0999
lfingers 7.12502
lthumb 14.7557 42.5546
rfemur -8.68795 -1.49014 18.6172
rtibia 63.7658
rfoot 5.56901 -13.8703
rtoes -3.76057
lfemur -13.1661 -5.53457 -26.8746
ltibia 27.8934
lfoot -10.7814 12.8986
ltoes -3.87539
377
root 11.8756 15.8111 -10.2272 -185.534 54.411 -183.834
lowerback 8.03137 0.721291 -2.69507
upperback -0.823428 0.673263 -0.684679
thorax -5.39143 0.406939 0.717119
lowerneck -11.4533 -9.11423 -13.3132
upperneck 23.7548 -11.9289 10.0093
head 10.9953 -5.38417 4.23247
rclavicle -1.30272e-013 2.33572e-015
rhumerus -37.9074 -0.9485 -86.6118
rradius 31.2088
rwrist 8.74955
rhand -16.7864 13.4529
rfingers 7.12502
rthumb 9.44142 -16.3157
lclavicle -1.30272e-013 2.33572e-015
lhumerus -35.2828 13.0832 74.9956
lradius 22.2241
lwrist -5.56905
lhand -11.0842 13.33
lfingers 7.12502
lthumb 14.9394 42.7712
rfemur -9.71933 -1.42879 18.5695
rtibia 64.3624
rfoot 4.11116 -14.1187
rtoes -4.51575
lfemur -12.9354 -5.5527 -27.0935
ltibia 28.0824
lfoot -11.3993 12.8763
ltoes -3.75314
378
root 11.9299 15.8093 -10.2848 -185.714 54.438 -184.089
lowerback 8.15355 0.682731 -2.83522
upperback -0.810519 0.601984 -0.75075
thorax -5.44573 0.376091 0.734791
lowerneck -11.4117 -9.10206 -13.2798
upperneck 23.6916 -11.927 10.0304
head 10.9622 -5.38114 4.23543
rclavicle -1.05338e-013 5.2181e-015
rhumerus -37.8572 -1.093 -86.6144
rradius 31.281
rwrist 8.99139
rhand -16.7259 13.3871
rfingers 7.12502
rthumb 9.49986 -16.3788
lclavicle -1.05338e-013 5.2181e-015
lhumerus -34.8443 12.7217 75.1362
lradius 22.2445
lwrist -5.72431
lhand -10.8364 13.7216
lfingers 7.12502
lthumb 15.1781 43.145
rfemur -10.7816 -1.32329 18.521
rtibia 64.8205
rfoot 2.76696 -14.2979
rtoes -5.36044
lfemur -12.77 -5.38447 -27.32
ltibia 28.3107
lfoot -11.9024 12.6991
ltoes -2.93624
379
root 11.9819 15.805 -10.3425 -185.7 54.5211 -184.183
lowerback 8.14373 0.666593 -2.80054
upperback -0.751873 0.583139 -0.827389
thorax -5.37672 0.36407 0.638453
lowerneck -11.4209 -9.13328 -13.218
upperneck 23.6214 -11.9933 10.0688
head 10.9449 -5.40377 4.22697
rclavicle -3.06684e-014 2.88238e-015
rhumerus -37.6885 -1.36938 -86.5949
rradius 31.3227
rwrist 9.39884
rhand -16.65 13.502
rfingers 7.12502
rthumb 9.57307 -16.2606
lclavicle -3.06684e-014 2.88238e-015
lhumerus -34.4059 12.6519 75.1655
lradius 22.3213
lwrist -6.04078
lhand -10.8848 13.67
lfingers 7.12502
lthumb 15.1315 43.0969
rfemur -11.9189 -1.17296 18.5834
rtibia 65.1344
rfoot 1.49825 -14.5055
rtoes -4.94461
lfemur -12.7069 -5.12653 -27.436
ltibia 28.5688
lfoot -11.9024 12.5148
ltoes -3.61875
380
root 12.0357 15.8028 -10.403 -185.435 54.6811 -183.934
lowerback 8.15448 0.624423 -2.58626
upperback -0.724376 0.548969 -0.80219
thorax -5.35065 0.340555 0.548894
lowerneck -11.3761 -9.09496 -13.2822
upperneck 23.6281 -11.9519 10.1601
head 10.9439 -5.38171 4.2799
rclavicle -3.22322e-014 2.18663e-015
rhumerus -37.6359 -1.10475 -86.791
rradius 31.4196
rwrist 9.09517
rhand -16.7438 13.6294
rfingers 7.12502
rthumb 9.48258 -16.1372
lclavicle -3.22322e-014 2.18663e-015
lhumerus -34.1341 12.8497 75.1318
lradius 22.4509
lwrist -6.31951
lhand -10.9676 13.3398
lfingers 7.12502
lthumb 15.0517 42.7726
rfemur -12.9779 -0.957313 18.8609
rtibia 65.2711
rfoot 0.0240973 -14.5699
rtoes -4.2492
lfemur -12.5447 -5.02926 -27.3263
ltibia 28.7551
lfoot -12.2669 12.412
ltoes -3.19754
381
root 12.0904 15.7967 -10.4682 -185.527 54.8578 -184.031
lowerback 8.18453 0.612587 -2.56709
upperback -0.672433 0.535194 -0.816283
thorax -5.31243 0.332573 0.525323
lowerneck -11.2695 -9.06466 -13.1702
upperneck 23.5595 -11.9032 10.0142
head 10.8724 -5.37072 4.21801
rclavicle -9.96109e-014 -5.96354e-016
rhumerus -37.6972 -0.486779 -87.1428
rradius 31.6551
rwrist 8.0092
rhand -17.1971 13.6307
rfingers 7.12502
rthumb 9.04518 -16.1553
lclavicle -9.96109e-014 -5.96354e-016
lhumerus -33.714 12.7069 75.2854
lradius 22.4272
lwrist -6.35087
lhand -11.0861 13.283
lfingers 7.12502
lthumb 14.9375 42.7244
rfemur -13.8735 -0.722964 18.8609
rtibia 65.2431
rfoot -1.65561 -14.2889
rtoes -3.79861
lfemur -12.2268 -5.0214 -27.4774
ltibia 28.868
lfoot -12.844 12.4831
ltoes -2.15822
382
root 12.1457 15.7852 -10.5361 -186.205 54.9742 -184.786
lowerback 8.22481 0.6198 -2.89957
upperback -0.603067 0.50852 -0.964597
thorax -5.26385 0.327503 0.560994
lowerneck -11.1566 -9.04022 -12.8158
upperneck 23.4074 -11.8669 9.68548
head 10.7405 -5.36634 4.04664
rclavicle 8.95493e-014 1.98785e-015
rhumerus -37.6933 -0.34033 -87.259
rradius 31.8202
rwrist 7.95152
rhand -17.0761 13.6909
rfingers 7.12502
rthumb 9.16189 -16.0901
lclavicle 8.95493e-014 1.98785e-015
lhumerus -33.1299 12.1895 75.5909
lradius 22.1286
lwrist -5.90198
lhand -11.4195 13.1319
lfingers 7.12502
lthumb 14.6163 42.5968
rfemur -14.7095 -0.569239 18.3819
rtibia 65.1222
rfoot -3.41917 -13.9655
rtoes -4.6855
lfemur -11.8214 -4.82874 -28.1222
ltibia 28.9127
lfoot -13.0143 12.6978
ltoes -3.42657
